<?xml version="1.0" encoding="utf-8"?>
<!-- Generator: Adobe Illustrator 23.0.1, SVG Export Plug-In . SVG Version: 6.00 Build 0)  -->
<svg version="1.1" id="One_line_x2C__cmyk_x2C__positive"
	 xmlns="http://www.w3.org/2000/svg" xmlns:xlink="http://www.w3.org/1999/xlink" x="0px" y="0px" viewBox="0 0 208.4882 73.2756"
	 style="enable-background:new 0 0 208.4882 73.2756;" xml:space="preserve">
<style type="text/css">
	.st0{fill:#0051A5;}
	.st1{fill:#FEDF01;}
	.st2{fill:#FFFFFF;}
</style>
<g id="Layer_2_2_">
	<g>
		<g>
			<g>
				<g>
					<g>
						<g>
							<path class="st0" d="M55.4507,63.8738c0,2.3854-0.9781,3.7683-2.8868,4.5023c-7.4162,2.8605-16.1999,4.335-24.5554,4.335
								c-8.3545,0-17.138-1.4745-24.5564-4.335c-1.9078-0.734-2.8859-2.1169-2.8859-4.5023V0.5644h54.8845V63.8738z"/>
							<g>
								<g>
									<path class="st1" d="M15.2854,39.145c-7.5972-4.7429-10.1085-6.8441-10.3211-9.9551
										c-0.0357-0.633,0.1073-1.6983,0.3724-2.4599l-0.7161-0.4753c-0.5742,0.9119-0.9372,2.1139-0.9372,3.2182
										c-0.001,1.7973,0.5753,3.1581,1.2809,4.2456c1.0685,1.6447,2.1917,2.6763,4.9566,4.7502
										c2.9826,2.2381,5.0154,4.8494,6.1868,7.5817h0.4239v-3.1015c4.0289,2.2863,7.5815,4.4392,9.3273,8.2829h0.4239
										C25.5981,47.2469,23.3454,44.176,15.2854,39.145z"/>
									<path class="st1" d="M50.2871,51.2383h-0.5143c0-2.8364-2.5997-3.6094-5.3236-3.6094h-8.5089
										c0.2733,1.3977,0.4017,3.0341,0.1883,4.5799h-0.4228c-0.7888-6.3721-4.3897-9.5291-9.423-12.907v2.8993h-0.4239
										c-1.3366-2.9919-4.2781-5.8009-7.0619-7.7927h0.0011c-0.7416-0.529-1.5071-1.0769-2.2665-1.6176v3.1278h-0.4239
										c-1.1798-3.1026-3.3231-5.4173-6.3783-8.1726c-3.299-2.971-4.6315-4.7484-5.4024-6.7928
										c-0.4691-1.2378-0.6005-2.2389-0.6183-3.5988c-0.0304-2.4314,1.199-4.6272,2.7312-5.4498v1.1779
										c-0.7603,1.0076-1.1538,2.2801-1.1557,3.5737c-0.0022,1.1925,0.2817,2.5208,0.8781,3.6535
										c1.8572,3.5378,8.1156,7.8802,12.0909,10.5451c12.3592,8.2892,14.8264,9.7363,16.8794,14.1355
										c0.2281,0.49,0.4564,1.1495,0.6466,1.913c1.786-0.2757,8.2621-1.261,9.4568-1.4504
										c0.2281-0.0357,0.7067-0.0967,0.9537-0.1113c1.1148-0.7058,1.9867-1.604,2.7524-2.725l-4.7378-0.3681
										c-0.244,0.5438-0.487,1.0002-0.7004,1.3661H43.119c0.1292-0.4815,0.2419-0.9558,0.3375-1.4238l-1.2094-0.0894v-0.2578
										l1.3115-0.162c0.2492-1.3408,0.3692-2.6081,0.3944-3.7933l-5.9672-0.3375c-0.0327,0.6119-0.0379,1.1882-0.0179,1.7226
										h-0.3818c-0.1273-0.5953-0.2273-1.1863-0.304-1.7638l-1.3071-0.0745v-0.3986l1.2419-0.0672
										c-0.1734-1.5788-0.185-3.0531-0.1208-4.3182l-3.4886-0.1609c0.1642,0.3069,0.3345,0.6183,0.4545,0.9558
										c0.753,2.1054,0.5742,4.5737,0.325,5.7074h-0.4228c-0.061-1.3136-0.5027-2.9225-0.9214-3.9048
										c-0.9654-2.2747-3.1319-4.2844-6.76-6.617v2.9068h-0.4239c-1.2074-3.8198-4.212-5.9441-8.6794-8.2388
										c-3.686-1.8919-4.8323-4.1711-4.6243-7.7003l1.2454,0.7372c0.3185,3.3012,2.8551,5.2047,5.5086,5.1847
										c1.5617-0.0106,3.0257-0.2177,4.4412-0.5016c2.0422-0.4123,3.9322-0.7646,5.5107-0.2051v-1.9498h-1.2399
										c-0.4429,0.3827-1.3419,0.8288-2.665,0.8486c-1.4544,0.0273-4.2066-0.8107-4.2066-3.8859
										c0-2.6701,2.2611-3.0961,4.1016-3.0961c0.9832,0,2.6207-0.0369,3.1749-0.0683c0.4122-0.0241,0.7204-0.0873,0.9201-0.285
										c0.2093-0.205,0.2724-0.4165,0.3209-0.689c0.0577-0.3312,0.0577-0.6709,0.0577-1.243c0-0.2104,0-1.9498,0-1.9498h-8.528
										v3.377l-3.2264-1.2273V9.8382h1.5449v-1.342h-5.7526V5.6914h-1.9626c-1.0496,0-2.2567,0.734-2.341,2.1579
										c-0.082,1.3651,0.5322,2.5146,1.9372,2.5146h0.2524v1.6343h-0.2524c-2.4619,0-4.318-1.8499-4.318-4.3044
										c0-2.5577,2.179-4.5054,4.8123-4.5054h4.1605v2.8047h16.1756c0,0,0,3.3529,0,4.1446c0,0.6983-0.0377,1.6365-0.1062,2.2297
										c-0.0474,0.4301-0.2007,1.2072-1.0179,1.8309c-0.4923,0.3754-1.2358,0.5269-2.443,0.5322
										c-0.3933,0.002-1.5407-0.0178-2.9152-0.102c-1.8426-0.1157-2.3654,0.5942-2.4399,1.2545c-0.017,0.14-0.0148,0.2755,0,0.406
										c0.8633-0.6689,2.0843-1.14,3.4716-0.7047c2.4409,0.7679,3.137,0.8361,4.4075-0.1628l0.1292,0.286
										c-0.1367,0.2124-0.3816,0.5163-0.7383,0.7866h1.179v6.3867l3.6703-2.1991h10.3011c0,0,4.355,2.2749,5.0712,2.6503
										c0.6321,0.3324,0.8813,0.7341,0.9802,1.3242c0.082,0.4932-0.0453,1.1178-0.2882,1.5174
										c-0.1514,0.2494-1.3345,2.1887-1.9604,3.2245c1.751,1.8951,2.9333,4.5464,2.9333,7.4993
										c0,2.6755-0.9897,6.1272-4.2047,8.6922c1.4135,0.4626,2.3201,1.2326,3.03,2.2473L50.2871,51.2383z M27.3175,16.84
										c-1.4469-0.3175-2.2535-0.1387-3.0856,0.6543c0.4071,0.1945,0.9171,0.3007,1.4808,0.2598
										C26.5247,17.6973,27.0304,17.2103,27.3175,16.84z M26.4816,26.0422l4.0761-2.4431
										c-0.7993-0.3984-1.6847-0.6509-2.7353-0.6647c-1.4039-0.0219-3.7755,0.6248-4.9228,0.8004
										C23.4118,24.0851,25.2333,25.2492,26.4816,26.0422z M44.6848,26.301l0.5648-0.792l-0.8749-1.1682l0.146-0.2578
										l2.461,1.3274l-0.5363,1.6267c0.3954,0.1894,0.7613,0.4312,1.2483,0.7541l1.5891-2.6135l-4.1164-2.1516h-9.0979
										l-7.3827,4.4422c1.3871,0.9634,2.6628,2.0046,3.5693,3.0531c1.9783-2.8784,5.455-4.7158,8.8962-4.7158
										C42.2766,25.8055,43.5879,25.9254,44.6848,26.301z M43.9435,36.6147c-0.0463-1.3588-0.2178-2.5882-0.445-3.6724
										l-4.8198-0.2187c-0.3323,1.467-0.5488,2.8995-0.652,4.2045L43.9435,36.6147z M45.5672,33.0381
										c0.1547,1.2441,0.1704,2.4103,0.0916,3.4872l4.7754-0.2535c-0.1219-1.0842-0.4301-2.1116-0.8927-3.0508L45.5672,33.0381z
										 M43.1315,31.4741c-0.4973-1.7237-1.0926-2.9227-1.406-3.4874c-0.1999-0.0115-0.4017-0.0168-0.6048-0.0168
										c-0.3354,0-0.6731,0.043-0.999,0.0788c-0.4837,1.2052-0.8761,2.4241-1.1968,3.6589L43.1315,31.4741z M44.4576,28.5809
										c0.3556,0.955,0.6238,1.8824,0.8204,2.7743l2.9195-0.1609C47.1943,30.0408,45.9121,29.1343,44.4576,28.5809z
										 M49.8286,40.896c0.3418-0.8288,0.5615-1.627,0.6216-2.6365l-4.9629-0.2819c-0.224,1.3892-0.5942,2.5988-0.9886,3.5893
										L49.8286,40.896z M37.5871,28.7724c-1.6627,0.7456-2.8079,1.7562-3.8301,3.2085l3.3968-0.1777
										C37.2759,30.2952,37.4736,29.2941,37.5871,28.7724z"/>
								</g>
								<g>
									<path class="st2" d="M31.2833,58.5694c1.3841-0.2251,2.7082-1.302,2.7082-2.9301c0-1.468-0.6237-3.0804-4.9449-3.0804
										c-3.2318,0-7.2903,0-7.2903,0v0.1178c0.2208,0.0675,0.5691,0.2462,0.7972,0.4724
										c0.4954,0.4837,0.6584,1.2072,0.6825,2.1663v10.9142c0,0,3.9943,0,6.0419,0c3.3234,0,5.7285-1.2673,5.7285-4.1708
										C35.0064,59.6978,33.169,58.6923,31.2833,58.5694z M28.1747,53.862c1.546,0,2.5945,0.3345,2.5945,1.9856
										c0,1.7595-1.4051,2.2443-3.0078,2.2443c-0.7771,0-1.3808,0-1.3808,0V53.862C26.3806,53.862,27.2449,53.862,28.1747,53.862z
										 M28.3304,64.9371c-0.6543,0-1.9498,0-1.9498,0V59.356c0,0,1.0601,0,1.8602,0c2.5558,0,3.5368,0.7613,3.5368,2.6776
										C31.7776,64.1064,30.4979,64.9371,28.3304,64.9371z"/>
									<path class="st2" d="M16.3761,66.2297h3.9363l-5.0291-6.4289c2.0161-0.5395,3.5262-1.6416,3.5262-3.6449
										c0-2.3526-1.4071-3.5969-5.0891-3.5969c-3.2643,0-7.6044,0-7.6044,0v0.1178c0.2797,0.1,0.5931,0.2809,0.7982,0.4827
										c0.5322,0.5249,0.6909,1.3263,0.6909,2.4095c0,0.0032,0,10.6607,0,10.6607h3.1582v-6.0597c0,0,0.6857,0,1.1527,0
										L16.3761,66.2297z M10.7633,53.862c0,0,1.1998,0,2.1275,0c1.7711,0,2.6955,0.5173,2.6955,2.4
										c0,1.6785-1.2096,2.6722-3.1489,2.6722c-0.7771,0-1.6741,0-1.6741,0V53.862z"/>
									<path class="st2" d="M47.7758,54.4321c0.8445,0.4794,1.101,1.1051,1.1062,1.1105
										c0.0411,0.0463,0.1316,0.0315,0.1316,0.0315l0.6877-2.3378c0,0-1.2346-0.8865-4.1709-0.8865
										c-4.4444,0-7.7718,2.2389-7.7718,7.1375c0,5.5203,3.9636,6.9536,7.4574,6.9536c3.2507,0,4.5273-1.0336,4.5273-1.0336
										v-1.6039c0,0-1.1484,1.0728-3.6102,1.0728c-2.035,0-5.0187-0.9287-5.0828-5.4677c-0.0599-4.1887,1.7667-5.556,4.215-5.556
										C46.6293,53.8526,47.3118,54.1713,47.7758,54.4321z"/>
								</g>
							</g>
						</g>
					</g>
				</g>
			</g>
		</g>
	</g>
</g>
<g>
	<g>
		<path class="st0" d="M62.5637,71.6174c-1.8741,0-3.4138-1.5113-3.4138-3.4295c0-1.9089,1.5397-3.4306,3.4138-3.4306
			c1.8697,0,3.4095,1.5217,3.4095,3.4306C65.9732,70.1061,64.4334,71.6174,62.5637,71.6174z M62.5637,65.4389
			c-1.4618,0-2.6292,1.2188-2.6292,2.7491c0,1.5322,1.1674,2.7659,2.6292,2.7659c1.4555,0,2.6376-1.2337,2.6376-2.7659
			C65.2013,66.6576,64.0192,65.4389,62.5637,65.4389z M62.7928,66.2424c0.6837,0,1.1338,0.451,1.1338,1.123
			c0,0.5828-0.387,1.0538-0.8561,1.0622c0.0695,0.0631,0.1094,0.1,0.1557,0.1663c0.2208,0.2765,0.9192,1.4932,0.9192,1.4932h-0.9108
			c-0.1473-0.2586-0.2102-0.3586-0.3597-0.6362c-0.3786-0.6899-0.4984-0.8749-0.6373-0.9412
			c-0.0379-0.0095-0.0694-0.0274-0.1219-0.0274v1.6048h-0.751v-3.8447H62.7928z M62.1157,67.9008h0.2608
			c0.3324,0,0.4775-0.0368,0.5805-0.1284c0.0926-0.0904,0.1451-0.2302,0.1451-0.387c0-0.2387-0.0863-0.3974-0.2735-0.47
			c-0.0821-0.0284-0.2481-0.0558-0.4331-0.0558h-0.2798V67.9008z"/>
	</g>
</g>
<g>
	<path class="st0" d="M95.4259,19.7137H93.026l-2.083-8.1528c-0.0791-0.2778-0.1587-0.6743-0.1787-0.853
		c-0.0195,0.1787-0.0791,0.5752-0.1587,0.8335l-2.0825,8.1724h-2.4399L81.818,6.0462h2.8369l3.0352,9.8984
		c0.0791,0.2778,0.1582,0.6748,0.1782,0.853c0.02-0.1782,0.0991-0.5752,0.1587-0.833l2.063-9.9185h1.9639l2.6978,9.9185
		c0.0596,0.2578,0.1387,0.6548,0.1587,0.833c0.02-0.1782,0.1387-0.5752,0.2183-0.853l0.9917-3.7886
		c0.6147-2.2417,1.0317-4.3442,1.1504-6.1099h2.5791L95.4259,19.7137z"/>
	<path class="st0" d="M105.7989,20.0906c-3.0747,0-5.2568-2.3608-5.2568-5.4551c0-3.1343,2.2417-5.4751,5.2168-5.4751
		c2.4399,0,4.6221,1.5278,4.6221,4.4834c0,0.1982-0.02,0.6543-0.0596,1.0117l-7.1411,0.1387
		c0.1982,2.1821,1.4482,3.7095,3.1143,3.7095c0.9521,0,1.9443-0.3569,3.0947-1.0513l0.7139,1.2295
		C108.5362,19.7732,107.1676,20.0906,105.7989,20.0906z M107.6436,13.1873c0.0195-1.666-0.8335-2.5391-1.8447-2.5391
		c-1.2104,0-2.2617,1.0317-2.48,2.7378L107.6436,13.1873z"/>
	<path class="st0" d="M122.044,19.7137h-0.5752c-0.377-0.1982-0.6548-0.2974-1.0117-0.2974c-0.2778,0-0.5952,0.1187-0.9521,0.2578
		c-0.5356,0.1982-1.21,0.4165-2.043,0.4165c-1.9243,0-3.4321-0.9521-4.2251-2.3804c-0.4766-0.873-0.6748-1.9438-0.6748-3.0151
		c0-2.1426,0.853-3.5903,2.1226-4.5825c0.8926-0.6743,2.063-0.9917,3.1538-0.9917c0.9126,0,1.9043,0.2578,2.46,0.4565l1.7456-0.397
		V19.7137z M117.9181,10.6883c-1.4082,0-2.7373,1.2295-2.7373,3.8877c0,1.5669,0.377,2.7373,1.1504,3.3921
		c0.3569,0.3374,0.833,0.5752,1.4082,0.5752c0.6943,0,1.4482-0.3569,1.7656-0.6543v-6.7446
		C119.0089,10.8269,118.3941,10.6883,117.9181,10.6883z"/>
	<path class="st0" d="M127.8155,19.7137h-2.519V4.281h2.519V19.7137z"/>
	<path class="st0" d="M137.0186,18.7815c-0.9722,0.6348-2.3804,1.1899-3.6104,1.1899c-0.6548,0-1.2896-0.1982-1.7256-0.6943
		c-0.377-0.436-0.5752-1.1108-0.5752-2.0229V6.4431l2.499-0.6147v3.5903h2.8169v1.5273h-2.8169v6.1294
		c0,0.7734,0.397,1.0312,0.9126,1.0312c0.6348,0,1.5869-0.377,2.0234-0.5752L137.0186,18.7815z"/>
	<path class="st0" d="M145.7657,19.7137v-5.7524c0-1.0317-0.1387-1.7852-0.4165-2.2417c-0.377-0.6147-1.0117-0.853-1.686-0.853
		c-0.7144,0-1.3687,0.2383-1.9043,0.5356v8.3115h-2.519V4.281h2.519v5.2964c0.3174-0.1191,1.0713-0.4761,2.3013-0.4761
		c1.5469,0,2.7969,0.7139,3.5503,1.8447c0.4761,0.7534,0.6748,1.7852,0.6748,2.916v5.8516H145.7657z"/>
	<path class="st0" d="M98.7188,42.971h-2.6382l-1.25-11.4258L91.776,42.971h-2.1816l-3.0352-11.4258L85.2896,42.971h-2.6382
		l1.4878-10.9297c0.0991-0.8926,0-1.6069-0.3574-2.063c-0.1782-0.2583-0.5552-0.4761-0.8926-0.4961v-0.1787h4.9194l2.7178,10.0571
		c0.0791,0.2578,0.1587,0.5952,0.1782,0.7935c0.02-0.1982,0.0796-0.5156,0.1592-0.7734l2.7173-10.0771h3.4712L98.7188,42.971z"/>
	<path class="st0" d="M110.3614,42.971h-0.5752c-0.377-0.1982-0.6548-0.2974-1.0117-0.2974c-0.2778,0-0.5952,0.1187-0.9521,0.2578
		c-0.5356,0.1982-1.21,0.4165-2.043,0.4165c-1.9243,0-3.4321-0.9521-4.2251-2.3804c-0.4766-0.873-0.6748-1.9438-0.6748-3.0151
		c0-2.1426,0.853-3.5903,2.1226-4.582c0.8926-0.6748,2.063-0.9922,3.1538-0.9922c0.9126,0,1.9043,0.2578,2.46,0.4565l1.7456-0.397
		V42.971z M106.2354,33.9456c-1.4082,0-2.7373,1.2295-2.7373,3.8877c0,1.5674,0.377,2.7373,1.1504,3.3921
		c0.3569,0.3374,0.833,0.5752,1.4082,0.5752c0.6943,0,1.4482-0.3569,1.7656-0.6548v-6.7441
		C107.3263,34.0843,106.7115,33.9456,106.2354,33.9456z"/>
	<path class="st0" d="M119.8619,42.971v-5.7725c0-1.0117-0.1191-1.7656-0.4165-2.2217c-0.377-0.6147-0.9917-0.853-1.7061-0.853
		c-0.7139,0-1.3687,0.2578-1.8052,0.4761v8.3711h-2.519V32.6761h0.5752c0.4761,0.2178,0.7339,0.2974,0.9917,0.2974
		c0.3574,0,0.6748-0.0796,1.0518-0.1982c0.5156-0.1787,1.1304-0.4165,2.1221-0.4165c1.5674,0,2.8169,0.6543,3.5508,1.7852
		c0.4961,0.7539,0.6748,1.7456,0.6748,2.876v5.9512H119.8619z"/>
	<path class="st0" d="M134.2823,42.971h-0.5752c-0.377-0.1982-0.6548-0.2974-1.0117-0.2974c-0.2778,0-0.5952,0.1187-0.9521,0.2578
		c-0.5356,0.1982-1.21,0.4165-2.043,0.4165c-1.9243,0-3.4321-0.9521-4.2251-2.3804c-0.4766-0.873-0.6748-1.9438-0.6748-3.0151
		c0-2.1426,0.853-3.5903,2.1226-4.582c0.8926-0.6748,2.063-0.9922,3.1538-0.9922c0.9126,0,1.9043,0.2578,2.46,0.4565l1.7456-0.397
		V42.971z M130.1563,33.9456c-1.4082,0-2.7373,1.2295-2.7373,3.8877c0,1.5674,0.377,2.7373,1.1504,3.3921
		c0.3569,0.3374,0.833,0.5752,1.4082,0.5752c0.6943,0,1.4482-0.3569,1.7656-0.6548v-6.7441
		C131.2472,34.0843,130.6324,33.9456,130.1563,33.9456z"/>
	<path class="st0" d="M145.0719,34.0447c0.417,0.4956,0.8335,1.23,0.8335,2.3804c0,2.2217-1.8647,3.9868-4.4634,3.9868
		c-0.4761,0-0.9917-0.0791-1.4678-0.1982c-0.377,0.3174-0.5752,0.5952-0.5752,0.853s0.1587,0.4165,0.4561,0.4961
		c0.3965,0.1387,1.5078,0.1782,2.2812,0.2178c2.4995,0.0996,4.8994,0.6548,4.8994,3.293c0,0.8525-0.3965,1.7451-1.1704,2.4395
		c-1.0708,0.9922-2.6382,1.4287-4.1851,1.4287c-3.6304,0-5.1577-1.25-5.1577-2.8369c0-1.0312,1.0117-1.9038,1.9839-2.2212h0.6543
		c-0.4761,0.7729-0.6147,1.3481-0.6147,1.8052c0,1.0908,0.9917,1.8047,2.9556,1.8047c1.4678,0,3.1343-0.6348,3.1343-1.9443
		c0-1.2095-1.6069-1.3877-3.1343-1.5068c-0.5752-0.04-1.8447-0.04-2.8564-0.4565c-0.7935-0.2974-1.4082-0.853-1.4082-1.7456
		c0-0.7734,0.436-1.5273,1.4478-2.2812c-1.0713-0.813-1.666-1.8643-1.666-3.1538c0-2.2217,1.8447-4.0068,4.4233-4.0068
		c0.9917,0,1.7256,0.2378,2.1226,0.4761c1.1108-0.2383,2.3604-0.9126,2.7769-1.3091l0.873,1.7256
		C146.7779,33.5882,145.6871,33.9256,145.0719,34.0447z M141.462,33.846c-1.23,0-1.9243,1.0913-1.9243,2.5591
		s0.6943,2.5591,1.9243,2.5591c1.2295,0,1.9438-1.0913,1.9438-2.5591S142.6915,33.846,141.462,33.846z"/>
	<path class="st0" d="M153.7198,43.3479c-3.0747,0-5.2568-2.3604-5.2568-5.4551c0-3.1343,2.2417-5.4746,5.2168-5.4746
		c2.4395,0,4.6221,1.5273,4.6221,4.4829c0,0.1982-0.0205,0.6543-0.0596,1.0117l-7.1411,0.1387
		c0.1982,2.1821,1.4482,3.7095,3.1138,3.7095c0.9521,0,1.9443-0.3569,3.0947-1.0513l0.7139,1.23
		C156.4571,43.0305,155.088,43.3479,153.7198,43.3479z M155.5645,36.4446c0.0195-1.666-0.834-2.5391-1.8447-2.5391
		c-1.2104,0-2.2617,1.0317-2.48,2.7378L155.5645,36.4446z"/>
	<path class="st0" d="M172.6739,42.971v-6.0103c0-0.8335-0.1191-1.4683-0.3174-1.8848c-0.3174-0.5752-0.9717-0.9126-1.5469-0.9126
		c-0.6152,0-1.21,0.2383-1.6865,0.5557c0.1387,0.4961,0.1592,1.1309,0.1592,1.9639v6.2881h-2.5v-6.7246
		c0-0.4761-0.0195-0.9321-0.1982-1.2891c-0.2373-0.4961-0.7334-0.8335-1.4277-0.8335c-0.7539,0-1.3291,0.3174-1.7656,0.5752v8.272
		h-2.5195V32.6761h0.3174c0.4766,0.2178,0.7539,0.2974,1.0908,0.2974c0.8535,0,1.667-0.5952,3.1543-0.5952
		c1.4678,0,2.2617,0.5156,2.7178,0.9326c1.0713-0.6548,2.0039-0.9326,3.1143-0.9326c1.2891,0,2.5986,0.5156,3.333,1.7456
		c0.416,0.7339,0.5947,1.7061,0.5947,2.8369v6.0103H172.6739z"/>
	<path class="st0" d="M182.9278,43.3479c-3.0742,0-5.2568-2.3604-5.2568-5.4551c0-3.1343,2.2422-5.4746,5.2168-5.4746
		c2.4404,0,4.6221,1.5273,4.6221,4.4829c0,0.1982-0.0195,0.6543-0.0596,1.0117l-7.1406,0.1387
		c0.1982,2.1821,1.4482,3.7095,3.1143,3.7095c0.9521,0,1.9434-0.3569,3.0947-1.0513l0.7139,1.23
		C185.6651,43.0305,184.297,43.3479,182.9278,43.3479z M184.7726,36.4446c0.0195-1.666-0.833-2.5391-1.8447-2.5391
		c-1.21,0-2.2617,1.0317-2.4795,2.7378L184.7726,36.4446z"/>
	<path class="st0" d="M196.5265,42.971v-5.7725c0-1.0117-0.1191-1.7656-0.416-2.2217c-0.377-0.6147-0.9922-0.853-1.7061-0.853
		s-1.3691,0.2578-1.8057,0.4761v8.3711h-2.5186V32.6761h0.5752c0.4756,0.2178,0.7334,0.2974,0.9912,0.2974
		c0.3574,0,0.6748-0.0796,1.0518-0.1982c0.5156-0.1787,1.1309-0.4165,2.1221-0.4165c1.5674,0,2.8174,0.6543,3.5508,1.7852
		c0.4961,0.7539,0.6748,1.7456,0.6748,2.876v5.9512H196.5265z"/>
	<path class="st0" d="M207.922,42.0388c-0.9717,0.6348-2.3799,1.1899-3.6104,1.1899c-0.6543,0-1.2891-0.1982-1.7256-0.6943
		c-0.377-0.4365-0.5752-1.1108-0.5752-2.0234V29.7005l2.499-0.6152v3.5908h2.8174v1.5273h-2.8174v6.1294
		c0,0.7734,0.3975,1.0312,0.9131,1.0312c0.6348,0,1.5869-0.3765,2.0234-0.5752L207.922,42.0388z"/>
</g>
</svg>
